<?xml version="1.0" encoding="utf-8"?><svg version="1.1" id="Layer_1" xmlns="http://www.w3.org/2000/svg" x="0" y="0" viewBox="0 0 580.1 103" xml:space="preserve"><style>.st0{fill:#99b82e}.st1{fill:#fff}.st2{fill:#002e68}</style><circle class="st0" cx="115" cy="60.6" r="42.4"/><path class="st1" d="M94.7 81.3h40.5V52.7L115 35.1 94.7 52.7z"/><g><path class="st2" d="M31.2 29.7c9.2 0 16.4 2.9 21.8 8.8 5.3 5.9 8 14 8 24.4v2.5H16.8c.7 5.6 2.7 9.8 6.2 12.8s8.3 4.5 14.4 4.5c3.9 0 7.7-.7 11.3-2 3.6-1.4 7.4-3.4 11.2-6.2v12.2c-7.3 5.2-16.1 7.7-26.6 7.7-9.8 0-17.9-3-24.1-8.9C3.1 79.6 0 71.8 0 61.9c0-9.5 2.9-17.2 8.6-23.2 5.8-6 13.3-9 22.6-9zm14.3 25.7c-.4-4.5-1.8-8.1-4.1-10.6-2.3-2.6-5.5-3.8-9.5-3.8-4.1 0-7.5 1.2-10 3.7-2.5 2.4-4.1 6-4.8 10.8h28.4zM204.2 29.7c7.3 0 13.8 1.4 19.7 4.2v13.9c-5.8-3.4-11.3-5.1-16.5-5.1-5.6 0-10.2 1.7-13.7 5.2-3.6 3.5-5.3 8.2-5.3 14.2 0 5.8 1.8 10.5 5.4 14.1 3.6 3.6 8.4 5.3 14.3 5.3 4.4 0 10.1-1.5 17.1-4.4v13.3c-6.5 2.6-13.1 3.9-20 3.9-10.1 0-18.3-2.9-24.6-8.7-6.3-5.8-9.4-13.5-9.4-23 0-9.9 3.1-17.9 9.2-24 6.1-5.9 14-8.9 23.8-8.9zM265.3 29.7c6.5 0 12.4 1.4 17.7 4.1 5.3 2.7 9.4 6.5 12.3 11.4s4.3 10.4 4.3 16.6c0 6.5-1.4 12.1-4.2 16.9-2.8 4.8-6.9 8.7-12.3 11.5-5.4 2.8-11.4 4.2-17.8 4.2-6.5 0-12.5-1.4-17.8-4.2s-9.4-6.6-12.2-11.5c-2.8-4.8-4.2-10.5-4.2-16.9 0-6.3 1.5-11.8 4.4-16.7s7-8.7 12.3-11.3c5.3-2.8 11.1-4.1 17.5-4.1zm-16.9 32.1c0 6.2 1.5 11.2 4.6 14.9 3 3.7 7.1 5.6 12.2 5.6 5.3 0 9.5-1.8 12.6-5.3 3.1-3.6 4.6-8.7 4.6-15.3 0-6.3-1.5-11.2-4.6-14.6-3.1-3.4-7.3-5.2-12.6-5.2-5 0-9 1.8-12.1 5.5-3.2 3.6-4.7 8.4-4.7 14.4zM346.5 29.7c6.7 0 12 2.2 16 6.6 4 4.4 6 10.2 6 17.3v39.6h-16.3v-38c0-4-1-7.3-2.9-9.6-1.9-2.4-4.6-3.5-7.9-3.5-2.5 0-4.9.7-7.1 2.2-2.2 1.5-4.7 4-7.3 7.4v41.4h-16.4V30.9H327v8.7c3-3.6 6.1-6.1 9.3-7.6 3-1.5 6.5-2.3 10.2-2.3zM402.8 29.7c3.4 0 6.7.4 9.7 1.2 3 .8 6.2 2 9.6 3.7v13.1c-3.1-2-6.5-3.6-10-4.8-3.6-1.2-6.7-1.8-9.5-1.8-2.4 0-4.2.4-5.5 1.3-1.3.9-2 2.2-2 3.8 0 .9.6 1.9 1.7 2.8 1.1.9 4.2 2.6 9.1 5.1 7.1 3.6 12.1 6.9 15 10 2.9 3 4.3 6.7 4.3 11 0 6-2.1 10.7-6.3 14.2-4.2 3.4-9.8 5.2-16.9 5.2-4.4 0-8.6-.5-12.4-1.5-3.8-1-7-2.2-9.6-3.5V75.7c8 4.4 14.7 6.7 20.2 6.7 2.8 0 5.1-.5 6.8-1.5 1.7-1 2.6-2.3 2.6-4 0-1-.3-1.9-.9-2.7-.6-.8-1.6-1.6-2.8-2.5-1.2-.8-5.1-2.9-11.7-6.1-5-2.4-8.7-5-11.1-7.8s-3.6-6.2-3.6-10c0-5.5 2.2-9.9 6.5-13.2 4.1-3.3 9.8-4.9 16.8-4.9zM451.6 30.9v38.6c0 4 1 7.1 3 9.2 2 2.1 4.7 3.2 8 3.2 2.8 0 5.4-.8 7.9-2.5s4.6-4.1 6.1-7.1V30.9H493v62.3h-16.4v-8.5c-5.9 6.5-12.3 9.7-19.2 9.7-6.7 0-12.1-2.2-16.1-6.5-4.1-4.4-6.1-10.1-6.1-17.1V30.9h16.4zM523.9 0v93.2h-16.4V0h16.4zM556.1 14.3h1.3v16.5h21.4v12.4h-21.4V72c0 2.8.8 5.1 2.5 6.8 1.7 1.7 4 2.6 6.9 2.6 3.8 0 8.2-1.4 13.2-4.1v13.1c-5.9 2.6-11.5 3.9-16.7 3.9-7 0-12.5-1.9-16.4-5.7-3.9-3.8-5.9-9-5.9-15.5V43.3h-9.7v-2.7l24.8-26.3z"/></g></svg>