<svg class="hidden" xmlns="http://www.w3.org/2000/svg">
	<defs>
		<symbol id="logo--front" viewBox="0 0 201 36">
			<circle id="Oval" fill="#99B82E" fill-rule="nonzero" cx="39.6551724" cy="20.8965517" r="14.6206897"></circle>
			<g id="Path-2" stroke-width="1" fill-rule="evenodd" transform="translate(32.655172, 12.103448)" fill="#FFFFFF">
				<polygon id="Path" fill-rule="nonzero" points="1.77635684e-14 15.9310345 13.9655172 15.9310345 13.9655172 6.06896552 7 8.8817842e-16 1.77635684e-14 6.06896552"></polygon>
			</g>
			<path fill="#fff" d="M10.7586207,10.2413793 C13.9310345,10.2413793 16.4137931,11.2413793 18.2758621,13.2758621 C20.1034483,15.3103448 21.0344828,18.1034483 21.0344828,21.6896552 L21.0344828,22.5517241 L5.79310345,22.5517241 C6.03448276,24.4827586 6.72413793,25.9310345 7.93103448,26.9655172 C9.13793103,28 10.7931034,28.5172414 12.8965517,28.5172414 C14.2413793,28.5172414 15.5517241,28.2758621 16.7931034,27.8275862 C18.0344828,27.3448276 19.3448276,26.6551724 20.6551724,25.6896552 L20.6551724,29.8965517 C18.137931,31.6896552 15.1034483,32.5517241 11.4827586,32.5517241 C8.10344828,32.5517241 5.31034483,31.5172414 3.17241379,29.4827586 C1.06896552,27.4482759 0,24.7586207 0,21.3448276 C0,18.0689655 1,15.4137931 2.96551724,13.3448276 C4.96551724,11.2758621 7.55172414,10.2413793 10.7586207,10.2413793 Z M15.6896552,19.1034483 C15.5517241,17.5517241 15.0689655,16.3103448 14.2758621,15.4482759 C13.4827586,14.5517241 12.3793103,14.137931 11,14.137931 C9.5862069,14.137931 8.4137931,14.5517241 7.55172414,15.4137931 C6.68965517,16.2413793 6.13793103,17.4827586 5.89655172,19.137931 L15.6896552,19.137931 L15.6896552,19.1034483 Z M70.4137931,10.2413793 C72.9310345,10.2413793 75.1724138,10.7241379 77.2068966,11.6896552 L77.2068966,16.4827586 C75.2068966,15.3103448 73.3103448,14.7241379 71.5172414,14.7241379 C69.5862069,14.7241379 68,15.3103448 66.7931034,16.5172414 C65.5517241,17.7241379 64.9655172,19.3448276 64.9655172,21.4137931 C64.9655172,23.4137931 65.5862069,25.0344828 66.8275862,26.2758621 C68.0689655,27.5172414 69.7241379,28.1034483 71.7586207,28.1034483 C73.2758621,28.1034483 75.2413793,27.5862069 77.6551724,26.5862069 L77.6551724,31.1724138 C75.4137931,32.0689655 73.137931,32.5172414 70.7586207,32.5172414 C67.2758621,32.5172414 64.4482759,31.5172414 62.2758621,29.5172414 C60.1034483,27.5172414 59.0344828,24.862069 59.0344828,21.5862069 C59.0344828,18.1724138 60.1034483,15.4137931 62.2068966,13.3103448 C64.3103448,11.2758621 67.0344828,10.2413793 70.4137931,10.2413793 L70.4137931,10.2413793 Z M91.4827586,10.2413793 C93.7241379,10.2413793 95.7586207,10.7241379 97.5862069,11.6551724 C99.4137931,12.5862069 100.827586,13.8965517 101.827586,15.5862069 C102.827586,17.2758621 103.310345,19.1724138 103.310345,21.3103448 C103.310345,23.5517241 102.827586,25.4827586 101.862069,27.137931 C100.896552,28.7931034 99.4827586,30.137931 97.6206897,31.1034483 C95.7586207,32.0689655 93.6896552,32.5517241 91.4827586,32.5517241 C89.2413793,32.5517241 87.1724138,32.0689655 85.3448276,31.1034483 C83.5172414,30.137931 82.1034483,28.8275862 81.137931,27.137931 C80.1724138,25.4827586 79.6896552,23.5172414 79.6896552,21.3103448 C79.6896552,19.137931 80.2068966,17.2413793 81.2068966,15.5517241 C82.2068966,13.862069 83.6206897,12.5517241 85.4482759,11.6551724 C87.2758621,10.6896552 89.2758621,10.2413793 91.4827586,10.2413793 L91.4827586,10.2413793 Z M85.6551724,21.3103448 C85.6551724,23.4482759 86.1724138,25.1724138 87.2413793,26.4482759 C88.2758621,27.7241379 89.6896552,28.3793103 91.4482759,28.3793103 C93.2758621,28.3793103 94.7241379,27.7586207 95.7931034,26.5517241 C96.862069,25.3103448 97.3793103,23.5517241 97.3793103,21.2758621 C97.3793103,19.1034483 96.862069,17.4137931 95.7931034,16.2413793 C94.7241379,15.0689655 93.2758621,14.4482759 91.4482759,14.4482759 C89.7241379,14.4482759 88.3448276,15.0689655 87.2758621,16.3448276 C86.1724138,17.5862069 85.6551724,19.2413793 85.6551724,21.3103448 Z M119.482759,10.2413793 C121.793103,10.2413793 123.62069,11 125,12.5172414 C126.37931,14.0344828 127.068966,16.0344828 127.068966,18.4827586 L127.068966,32.137931 L121.448276,32.137931 L121.448276,19.0344828 C121.448276,17.6551724 121.103448,16.5172414 120.448276,15.7241379 C119.793103,14.8965517 118.862069,14.5172414 117.724138,14.5172414 C116.862069,14.5172414 116.034483,14.7586207 115.275862,15.2758621 C114.517241,15.7931034 113.655172,16.6551724 112.758621,17.8275862 L112.758621,32.1034483 L107.103448,32.1034483 L107.103448,10.6551724 L112.758621,10.6551724 L112.758621,13.6551724 C113.793103,12.4137931 114.862069,11.5517241 115.965517,11.0344828 C117,10.5172414 118.206897,10.2413793 119.482759,10.2413793 Z M138.896552,10.2413793 C140.068966,10.2413793 141.206897,10.3793103 142.241379,10.6551724 C143.275862,10.9310345 144.37931,11.3448276 145.551724,11.9310345 L145.551724,16.4482759 C144.482759,15.7586207 143.310345,15.2068966 142.103448,14.7931034 C140.862069,14.3793103 139.793103,14.1724138 138.827586,14.1724138 C138,14.1724138 137.37931,14.3103448 136.931034,14.6206897 C136.482759,14.9310345 136.241379,15.3793103 136.241379,15.9310345 C136.241379,16.2413793 136.448276,16.5862069 136.827586,16.8965517 C137.206897,17.2068966 138.275862,17.7931034 139.965517,18.6551724 C142.413793,19.8965517 144.137931,21.0344828 145.137931,22.1034483 C146.137931,23.137931 146.62069,24.4137931 146.62069,25.8965517 C146.62069,27.9655172 145.896552,29.5862069 144.448276,30.7931034 C143,31.9655172 141.068966,32.5862069 138.62069,32.5862069 C137.103448,32.5862069 135.655172,32.4137931 134.344828,32.0689655 C133.034483,31.7241379 131.931034,31.3103448 131.034483,30.862069 L131.034483,26.1034483 C133.793103,27.6206897 136.103448,28.4137931 138,28.4137931 C138.965517,28.4137931 139.758621,28.2413793 140.344828,27.8965517 C140.931034,27.5517241 141.241379,27.1034483 141.241379,26.5172414 C141.241379,26.1724138 141.137931,25.862069 140.931034,25.5862069 C140.724138,25.3103448 140.37931,25.0344828 139.965517,24.7241379 C139.551724,24.4482759 138.206897,23.7241379 135.931034,22.6206897 C134.206897,21.7931034 132.931034,20.8965517 132.103448,19.9310345 C131.275862,18.9655172 130.862069,17.7931034 130.862069,16.4827586 C130.862069,14.5862069 131.62069,13.0689655 133.103448,11.9310345 C134.517241,10.7931034 136.482759,10.2413793 138.896552,10.2413793 L138.896552,10.2413793 Z M155.724138,10.6551724 L155.724138,23.9655172 C155.724138,25.3448276 156.068966,26.4137931 156.758621,27.137931 C157.448276,27.862069 158.37931,28.2413793 159.517241,28.2413793 C160.482759,28.2413793 161.37931,27.9655172 162.241379,27.3793103 C163.103448,26.7931034 163.827586,25.9655172 164.344828,24.9310345 L164.344828,10.6551724 L170,10.6551724 L170,32.137931 L164.344828,32.137931 L164.344828,29.2068966 C162.310345,31.4482759 160.103448,32.5517241 157.724138,32.5517241 C155.413793,32.5517241 153.551724,31.7931034 152.172414,30.3103448 C150.758621,28.7931034 150.068966,26.8275862 150.068966,24.4137931 L150.068966,10.6551724 L155.724138,10.6551724 L155.724138,10.6551724 Z M180.655172,0 L180.655172,32.137931 L175,32.137931 L175,0 L180.655172,0 Z M191.758621,4.93103448 L192.206897,4.93103448 L192.206897,10.6206897 L199.586207,10.6206897 L199.586207,14.8965517 L192.206897,14.8965517 L192.206897,24.8275862 C192.206897,25.7931034 192.482759,26.5862069 193.068966,27.1724138 C193.655172,27.7586207 194.448276,28.0689655 195.448276,28.0689655 C196.758621,28.0689655 198.275862,27.5862069 200,26.6551724 L200,31.1724138 C197.965517,32.0689655 196.034483,32.5172414 194.241379,32.5172414 C191.827586,32.5172414 189.931034,31.862069 188.586207,30.5517241 C187.241379,29.2413793 186.551724,27.4482759 186.551724,25.2068966 L186.551724,14.9310345 L183.206897,14.9310345 L183.206897,14 L191.758621,4.93103448 L191.758621,4.93103448 Z"></path>

		</symbol>

		<symbol id="logo" viewBox="0 0 201 36">
			<circle id="Oval" fill="#99B82E" fill-rule="nonzero" cx="39.6551724" cy="20.8965517" r="14.6206897"></circle>
			<g id="Path-2" stroke-width="1" fill-rule="evenodd" transform="translate(32.655172, 12.103448)" fill="#FFFFFF">
				<polygon id="Path" fill-rule="nonzero" points="1.77635684e-14 15.9310345 13.9655172 15.9310345 13.9655172 6.06896552 7 8.8817842e-16 1.77635684e-14 6.06896552"></polygon>
			</g>
			<path fill="#002e68" d="M10.7586207,10.2413793 C13.9310345,10.2413793 16.4137931,11.2413793 18.2758621,13.2758621 C20.1034483,15.3103448 21.0344828,18.1034483 21.0344828,21.6896552 L21.0344828,22.5517241 L5.79310345,22.5517241 C6.03448276,24.4827586 6.72413793,25.9310345 7.93103448,26.9655172 C9.13793103,28 10.7931034,28.5172414 12.8965517,28.5172414 C14.2413793,28.5172414 15.5517241,28.2758621 16.7931034,27.8275862 C18.0344828,27.3448276 19.3448276,26.6551724 20.6551724,25.6896552 L20.6551724,29.8965517 C18.137931,31.6896552 15.1034483,32.5517241 11.4827586,32.5517241 C8.10344828,32.5517241 5.31034483,31.5172414 3.17241379,29.4827586 C1.06896552,27.4482759 0,24.7586207 0,21.3448276 C0,18.0689655 1,15.4137931 2.96551724,13.3448276 C4.96551724,11.2758621 7.55172414,10.2413793 10.7586207,10.2413793 Z M15.6896552,19.1034483 C15.5517241,17.5517241 15.0689655,16.3103448 14.2758621,15.4482759 C13.4827586,14.5517241 12.3793103,14.137931 11,14.137931 C9.5862069,14.137931 8.4137931,14.5517241 7.55172414,15.4137931 C6.68965517,16.2413793 6.13793103,17.4827586 5.89655172,19.137931 L15.6896552,19.137931 L15.6896552,19.1034483 Z M70.4137931,10.2413793 C72.9310345,10.2413793 75.1724138,10.7241379 77.2068966,11.6896552 L77.2068966,16.4827586 C75.2068966,15.3103448 73.3103448,14.7241379 71.5172414,14.7241379 C69.5862069,14.7241379 68,15.3103448 66.7931034,16.5172414 C65.5517241,17.7241379 64.9655172,19.3448276 64.9655172,21.4137931 C64.9655172,23.4137931 65.5862069,25.0344828 66.8275862,26.2758621 C68.0689655,27.5172414 69.7241379,28.1034483 71.7586207,28.1034483 C73.2758621,28.1034483 75.2413793,27.5862069 77.6551724,26.5862069 L77.6551724,31.1724138 C75.4137931,32.0689655 73.137931,32.5172414 70.7586207,32.5172414 C67.2758621,32.5172414 64.4482759,31.5172414 62.2758621,29.5172414 C60.1034483,27.5172414 59.0344828,24.862069 59.0344828,21.5862069 C59.0344828,18.1724138 60.1034483,15.4137931 62.2068966,13.3103448 C64.3103448,11.2758621 67.0344828,10.2413793 70.4137931,10.2413793 L70.4137931,10.2413793 Z M91.4827586,10.2413793 C93.7241379,10.2413793 95.7586207,10.7241379 97.5862069,11.6551724 C99.4137931,12.5862069 100.827586,13.8965517 101.827586,15.5862069 C102.827586,17.2758621 103.310345,19.1724138 103.310345,21.3103448 C103.310345,23.5517241 102.827586,25.4827586 101.862069,27.137931 C100.896552,28.7931034 99.4827586,30.137931 97.6206897,31.1034483 C95.7586207,32.0689655 93.6896552,32.5517241 91.4827586,32.5517241 C89.2413793,32.5517241 87.1724138,32.0689655 85.3448276,31.1034483 C83.5172414,30.137931 82.1034483,28.8275862 81.137931,27.137931 C80.1724138,25.4827586 79.6896552,23.5172414 79.6896552,21.3103448 C79.6896552,19.137931 80.2068966,17.2413793 81.2068966,15.5517241 C82.2068966,13.862069 83.6206897,12.5517241 85.4482759,11.6551724 C87.2758621,10.6896552 89.2758621,10.2413793 91.4827586,10.2413793 L91.4827586,10.2413793 Z M85.6551724,21.3103448 C85.6551724,23.4482759 86.1724138,25.1724138 87.2413793,26.4482759 C88.2758621,27.7241379 89.6896552,28.3793103 91.4482759,28.3793103 C93.2758621,28.3793103 94.7241379,27.7586207 95.7931034,26.5517241 C96.862069,25.3103448 97.3793103,23.5517241 97.3793103,21.2758621 C97.3793103,19.1034483 96.862069,17.4137931 95.7931034,16.2413793 C94.7241379,15.0689655 93.2758621,14.4482759 91.4482759,14.4482759 C89.7241379,14.4482759 88.3448276,15.0689655 87.2758621,16.3448276 C86.1724138,17.5862069 85.6551724,19.2413793 85.6551724,21.3103448 Z M119.482759,10.2413793 C121.793103,10.2413793 123.62069,11 125,12.5172414 C126.37931,14.0344828 127.068966,16.0344828 127.068966,18.4827586 L127.068966,32.137931 L121.448276,32.137931 L121.448276,19.0344828 C121.448276,17.6551724 121.103448,16.5172414 120.448276,15.7241379 C119.793103,14.8965517 118.862069,14.5172414 117.724138,14.5172414 C116.862069,14.5172414 116.034483,14.7586207 115.275862,15.2758621 C114.517241,15.7931034 113.655172,16.6551724 112.758621,17.8275862 L112.758621,32.1034483 L107.103448,32.1034483 L107.103448,10.6551724 L112.758621,10.6551724 L112.758621,13.6551724 C113.793103,12.4137931 114.862069,11.5517241 115.965517,11.0344828 C117,10.5172414 118.206897,10.2413793 119.482759,10.2413793 Z M138.896552,10.2413793 C140.068966,10.2413793 141.206897,10.3793103 142.241379,10.6551724 C143.275862,10.9310345 144.37931,11.3448276 145.551724,11.9310345 L145.551724,16.4482759 C144.482759,15.7586207 143.310345,15.2068966 142.103448,14.7931034 C140.862069,14.3793103 139.793103,14.1724138 138.827586,14.1724138 C138,14.1724138 137.37931,14.3103448 136.931034,14.6206897 C136.482759,14.9310345 136.241379,15.3793103 136.241379,15.9310345 C136.241379,16.2413793 136.448276,16.5862069 136.827586,16.8965517 C137.206897,17.2068966 138.275862,17.7931034 139.965517,18.6551724 C142.413793,19.8965517 144.137931,21.0344828 145.137931,22.1034483 C146.137931,23.137931 146.62069,24.4137931 146.62069,25.8965517 C146.62069,27.9655172 145.896552,29.5862069 144.448276,30.7931034 C143,31.9655172 141.068966,32.5862069 138.62069,32.5862069 C137.103448,32.5862069 135.655172,32.4137931 134.344828,32.0689655 C133.034483,31.7241379 131.931034,31.3103448 131.034483,30.862069 L131.034483,26.1034483 C133.793103,27.6206897 136.103448,28.4137931 138,28.4137931 C138.965517,28.4137931 139.758621,28.2413793 140.344828,27.8965517 C140.931034,27.5517241 141.241379,27.1034483 141.241379,26.5172414 C141.241379,26.1724138 141.137931,25.862069 140.931034,25.5862069 C140.724138,25.3103448 140.37931,25.0344828 139.965517,24.7241379 C139.551724,24.4482759 138.206897,23.7241379 135.931034,22.6206897 C134.206897,21.7931034 132.931034,20.8965517 132.103448,19.9310345 C131.275862,18.9655172 130.862069,17.7931034 130.862069,16.4827586 C130.862069,14.5862069 131.62069,13.0689655 133.103448,11.9310345 C134.517241,10.7931034 136.482759,10.2413793 138.896552,10.2413793 L138.896552,10.2413793 Z M155.724138,10.6551724 L155.724138,23.9655172 C155.724138,25.3448276 156.068966,26.4137931 156.758621,27.137931 C157.448276,27.862069 158.37931,28.2413793 159.517241,28.2413793 C160.482759,28.2413793 161.37931,27.9655172 162.241379,27.3793103 C163.103448,26.7931034 163.827586,25.9655172 164.344828,24.9310345 L164.344828,10.6551724 L170,10.6551724 L170,32.137931 L164.344828,32.137931 L164.344828,29.2068966 C162.310345,31.4482759 160.103448,32.5517241 157.724138,32.5517241 C155.413793,32.5517241 153.551724,31.7931034 152.172414,30.3103448 C150.758621,28.7931034 150.068966,26.8275862 150.068966,24.4137931 L150.068966,10.6551724 L155.724138,10.6551724 L155.724138,10.6551724 Z M180.655172,0 L180.655172,32.137931 L175,32.137931 L175,0 L180.655172,0 Z M191.758621,4.93103448 L192.206897,4.93103448 L192.206897,10.6206897 L199.586207,10.6206897 L199.586207,14.8965517 L192.206897,14.8965517 L192.206897,24.8275862 C192.206897,25.7931034 192.482759,26.5862069 193.068966,27.1724138 C193.655172,27.7586207 194.448276,28.0689655 195.448276,28.0689655 C196.758621,28.0689655 198.275862,27.5862069 200,26.6551724 L200,31.1724138 C197.965517,32.0689655 196.034483,32.5172414 194.241379,32.5172414 C191.827586,32.5172414 189.931034,31.862069 188.586207,30.5517241 C187.241379,29.2413793 186.551724,27.4482759 186.551724,25.2068966 L186.551724,14.9310345 L183.206897,14.9310345 L183.206897,14 L191.758621,4.93103448 L191.758621,4.93103448 Z"></path>

		</symbol>

		<symbol id="logo_house" viewBox="0 0 103 103"><g fill-rule="nonzero" fill="none"><circle fill="#99B82E" cx="51.5" cy="51.5" r="51.5"/><path d="M26.843 76.643h49.192v-32.38L51.5 20.526 26.843 44.262z" fill="#FFF"/></g></symbol>

		<symbol id="check" viewBox="0 0 46 35"><g fill-rule="nonzero" fill="#99B82E"><path d="M15.599 34.42L.58 19.401a1.98 1.98 0 010-2.802l4.019-4.019a1.98 1.98 0 012.802 0L22.42 27.599a1.98 1.98 0 010 2.802l-4.019 4.019a1.983 1.983 0 01-2.802 0z"/><path d="M11.58 27.599L38.599.58a1.98 1.98 0 012.802 0l4.019 4.019a1.98 1.98 0 010 2.802L18.401 34.42a1.98 1.98 0 01-2.802 0l-4.019-4.019a1.983 1.983 0 010-2.802z"/></g></symbol>


		<symbol id="mail" viewBox="0 0 60 60"><g stroke="#002E68" stroke-width="2" fill="none" fill-rule="evenodd"><path stroke-linecap="square" d="M10 16h40v28H10z"/><path stroke-linecap="round" d="M10 16l20 18 20-18M10 44l13.65-15.6M50 44L36.312 28.356"/></g></symbol>

		<symbol id="phone" viewBox="0 0 60 60"><path d="M31.482 43.307l6.313-6.314 10.434 7.278-2.34 2.34a6 6 0 01-5.96 1.507c-6.459-1.93-12.26-5.467-17.406-10.612-5.145-5.145-8.682-10.947-10.611-17.405a6 6 0 011.506-5.96l2.34-2.34 7.278 10.433-6.314 6.314" stroke="#002E68" stroke-width="2" fill="none" fill-rule="evenodd" stroke-linecap="round"/></symbol>

		<symbol id="location" viewBox="0 0 60 60"><g transform="translate(18 12)" stroke="#002E68" stroke-width="2" fill="none" fill-rule="evenodd" stroke-linecap="square"><path d="M12 36c8-8.4 12-16.4 12-24 0-6.627-5.373-12-12-12S0 5.373 0 12c0 7.6 4 15.6 12 24z"/><circle cx="12" cy="12" r="2"/></g></symbol>

	</defs>


</svg>
